<?xml version="1.0" encoding="UTF-8" standalone="no"?>
<!-- Created with Inkscape (http://www.inkscape.org/) -->

<svg
   width="256"
   height="256"
   viewBox="0 0 67.733332 67.733333"
   version="1.1"
   id="svg1"
   inkscape:version="1.4.3 (0d15f75042, 2025-12-25)"
   xml:space="preserve"
   sodipodi:docname="accommodation.svg"
   xmlns:inkscape="http://www.inkscape.org/namespaces/inkscape"
   xmlns:sodipodi="http://sodipodi.sourceforge.net/DTD/sodipodi-0.dtd"
   xmlns="http://www.w3.org/2000/svg"
   xmlns:svg="http://www.w3.org/2000/svg"><sodipodi:namedview
     id="namedview1"
     pagecolor="#ffffff"
     bordercolor="#000000"
     borderopacity="0.25"
     inkscape:showpageshadow="2"
     inkscape:pageopacity="0.0"
     inkscape:pagecheckerboard="0"
     inkscape:deskcolor="#d1d1d1"
     inkscape:document-units="mm"
     inkscape:zoom="3.734375"
     inkscape:cx="127.86611"
     inkscape:cy="128"
     inkscape:window-width="1920"
     inkscape:window-height="1200"
     inkscape:window-x="0"
     inkscape:window-y="0"
     inkscape:window-maximized="0"
     inkscape:current-layer="layer1" /><defs
     id="defs1" /><g
     inkscape:label="Layer 1"
     inkscape:groupmode="layer"
     id="layer1"><circle
       style="fill:#000000;stroke-width:0.264583;fill-opacity:0;stroke:#000000;stroke-opacity:1"
       id="path9"
       cx="16.720781"
       cy="12.611436"
       r="6.4474196" /><path
       style="fill:#000000;fill-opacity:0;stroke:#000000;stroke-width:0.264583;stroke-opacity:1"
       d="M 16.862482,19.058856 16.791632,41.093445 8.8563459,54.625941"
       id="path10" /><path
       style="fill:#000000;fill-opacity:0;stroke:#000000;stroke-width:0.264583;stroke-opacity:1"
       d="m 16.791632,41.093445 7.793584,12.682286"
       id="path11" /><path
       style="fill:#000000;fill-opacity:0;stroke:#000000;stroke-width:0.264583;stroke-opacity:1"
       d="M 7.7227336,31.599441 16.64993,19.271408 24.372664,30.040725"
       id="path12" /><path
       id="path13"
       style="fill:#000000;fill-opacity:0;stroke:#000000;stroke-width:0.264583;stroke-opacity:1"
       d="m 47.718018,2.975529 c -2.181056,6.85e-5 -4.094151,0.9665515 -4.676718,2.3626465 -1.015985,-0.787106 -2.391606,-1.2289847 -3.825606,-1.2288656 -2.469297,1.264e-4 -4.626357,1.2983566 -5.246191,3.15743 -0.267957,-0.026592 -0.539396,-0.039905 -0.81132,-0.039791 -2.62151,1.5e-6 -4.746735,1.2210923 -4.746997,2.7274821 -3.3e-5,0.8925328 0.759816,1.7286178 2.034501,2.2386228 -0.12733,0.249366 -0.192216,0.510132 -0.192236,0.772563 -5.9e-5,0.923277 0.798605,1.770127 2.072741,2.197799 -0.01205,0.08197 -0.01808,0.164216 -0.01809,0.246496 -1.28e-4,1.584784 2.188588,2.869556 4.888591,2.869592 2.018622,6.5e-5 3.829737,-0.728118 4.558895,-1.832963 1.039101,0.916328 2.928804,1.478445 4.970239,1.478463 2.710413,9.8e-5 5.056174,-0.982873 5.639449,-2.363163 1.160582,0.337281 2.608901,0.521354 4.102592,0.521415 3.600326,3.9e-5 6.518902,-1.046938 6.518465,-2.338359 -2.25e-4,-0.572218 -0.585458,-1.124539 -1.644861,-1.55236 0.607756,-0.430355 0.936479,-0.954825 0.936377,-1.493965 C 62.27799,9.4747624 60.607294,8.4338964 58.343726,8.2475586 58.601704,7.8718304 58.735324,7.4632151 58.735433,7.0496989 58.735545,5.4648657 56.81634,4.1800738 54.448873,4.1801066 53.57623,4.1801151 52.724377,4.3584183 52.007161,4.6911865 51.166174,3.6357782 49.515766,2.975615 47.718018,2.975529 Z"
       sodipodi:nodetypes="ccccccccccccccccccccscc" /><g
       id="g31"><g
         id="g30"><path
           style="fill:#000000;fill-opacity:0;stroke:#000000;stroke-width:0.264583;stroke-opacity:1"
           d="m 38.400865,9.1430737 c 0,0.070974 -0.03023,0.2150878 0,0.2755448 0.04999,0.09996 0.04142,0.1743659 0.07515,0.2755447 0.0083,0.024946 0.0418,0.050204 0.0501,0.075149 0.0053,0.015843 -0.0053,0.034256 0,0.050099 0.01157,0.034717 0.125346,0.2422648 0.150296,0.2755448 0.01417,0.0189 0.03796,0.02985 0.0501,0.0501 0.0378,0.06299 0.0596,0.139507 0.100198,0.200397 0.01965,0.02948 0.05549,0.04567 0.07515,0.07515 0.02494,0.03742 0.02698,0.08669 0.0501,0.125248 0.02069,0.03448 0.07951,0.09077 0.100201,0.125247 0.03868,0.06446 0.06153,0.135937 0.100197,0.200397 0.03799,0.06332 0.140985,0.156726 0.175345,0.225446 0.0075,0.01494 -0.0053,0.03426 0,0.0501 0.0112,0.03361 0.05549,0.04567 0.07515,0.07515 0.0046,0.0069 -0.0059,0.01915 0,0.02505 0.0059,0.0059 0.01666,0 0.02506,0 0.0084,0.0084 0.01666,0.01665 0.02506,0.02505 0.03827,0.05741 0.03688,0.117937 0.07515,0.175347 0.0066,0.0098 0.01666,0.01665 0.02506,0.02505 0.0084,0 0.01916,-0.0059 0.02506,0 0.008,0.008 0.01586,0.08177 0.02506,0.100199 0.01597,0.03193 0.06412,0.06709 0.07515,0.100198 0.01461,0.04377 0.01048,0.08148 0.02506,0.125247 0.0075,0.02241 0.03954,0.02898 0.0501,0.0501 0.09561,0.191213 0.168997,0.379862 0.350692,0.500991 0.03728,0.02486 0.03164,0.07119 0.07515,0.100198 0.05273,0.03516 0.239863,0.113098 0.300593,0.125248 0.01638,0.0033 0.03425,-0.0053 0.0501,0 0.03152,0.0105 0.06324,0.03778 0.100197,0.0501 0.01584,0.0053 0.03425,-0.0053 0.0501,0 0.03543,0.01181 0.06397,0.041 0.100198,0.0501 0.0864,0.0216 0.164904,0.04662 0.250494,0.07515 0.02377,0.0079 0.05086,-0.0061 0.07515,0 0.04368,0.01092 0.08157,0.03918 0.125246,0.0501 0.04615,0.01154 0.105289,-0.015 0.150299,0 0.01122,0.0037 0.0136,0.02215 0.02506,0.02505 0.06983,0.01746 0.177307,0 0.250497,0 0.200396,0 0.400791,0 0.601187,0 0.208748,0 0.417494,0 0.626239,0 0.09536,0 0.206713,0.01565 0.300593,0 0.284176,-0.04736 0.568968,-0.08991 0.851686,-0.125248 0.09143,-0.01143 0.185975,-0.03517 0.275545,-0.0501 0.108157,-0.01803 0.04214,-0.03207 0.150297,-0.0501 0.07196,-0.012 0.155066,-0.0075 0.225446,-0.02505 0.105227,-0.02631 0.200353,-0.08766 0.300593,-0.125247 0.06447,-0.02418 0.135075,-0.02833 0.200395,-0.0501 0.116055,-0.03868 0.241996,-0.09595 0.350695,-0.150298 0.02693,-0.01346 0.05009,-0.0334 0.07515,-0.0501 0.02505,-0.0167 0.04822,-0.03663 0.07515,-0.0501 0.182692,-0.09135 0.363738,-0.178867 0.526042,-0.300594 0.03592,-0.02695 0.08521,-0.03009 0.125245,-0.0501 0.05848,-0.02924 0.09716,-0.06831 0.150297,-0.100198 0.07878,-0.04727 0.173997,-0.06788 0.250497,-0.125248 0.09493,-0.0712 0.207263,-0.125726 0.300593,-0.200396 0.07323,-0.05858 0.145916,-0.152676 0.225446,-0.200396 0.02264,-0.01359 0.0525,-0.01147 0.07515,-0.02505 0.05063,-0.03038 0.07915,-0.08837 0.125246,-0.125248 0.05457,-0.04366 0.118987,-0.08298 0.175347,-0.125247 0.02988,-0.02241 0.07379,-0.0237 0.100198,-0.0501 0.01321,-0.0132 0.01186,-0.0369 0.02506,-0.0501 0.112633,-0.112635 0.276915,-0.219464 0.400793,-0.325644 0.09801,-0.08401 0.174781,-0.194935 0.275542,-0.275545 0.04702,-0.03762 0.10772,-0.05762 0.1503,-0.100198 0.01321,-0.0132 0.01186,-0.0369 0.02506,-0.0501 0.0566,-0.056606 0.205605,-0.1537698 0.275545,-0.2003968 0.05574,-0.037155 0.08217,-0.1072181 0.125248,-0.1502971 0.02641,-0.026405 0.06913,-0.029385 0.100198,-0.050099 0.02068,-0.013786 0.112018,-0.086979 0.125248,-0.100198 0.01321,-0.013202 0.0095,-0.039743 0.02506,-0.050099 0.0139,-0.00926 0.03425,0.00528 0.0501,0 0.04984,-0.016614 0.07786,-0.1015516 0.125249,-0.1252476 0.01518,-0.00759 0.06465,-0.014555 0.07515,-0.025051 0.0059,-0.00591 -0.0059,-0.019151 0,-0.025051 0.0059,-0.0059 0.01756,0.00373 0.02506,0 0.08196,-0.040981 0.148986,-0.1494242 0.225446,-0.2003962 0.100037,-0.066691 0.179246,-0.1532207 0.275546,-0.2254457 0.01494,-0.011203 0.0369,-0.011848 0.0501,-0.025051 0.01321,-0.013202 0.01186,-0.036896 0.02506,-0.050099 0.0132,-0.013203 0.03515,-0.013849 0.0501,-0.025051 0.07458,-0.055938 0.168724,-0.1498117 0.225444,-0.2254457 0.113739,-0.1516523 0.214061,-0.3021129 0.325644,-0.4508915 0.03847,-0.051288 0.04217,-0.1203838 0.07515,-0.1753468 0.07952,-0.1325234 0.157146,-0.2641938 0.225446,-0.4007924 0.06101,-0.1220287 0.165527,-0.2308537 0.225447,-0.3506936 0.0037,-0.00747 0,-0.016701 0,-0.025051 0.0084,-0.0167 0.01666,-0.033399 0.02506,-0.050099 0.0131,-0.01965 0.03954,-0.028975 0.0501,-0.050099 0.0037,-0.00747 -0.0059,-0.019151 0,-0.025051 0.02727,-0.027248 0.03272,0.044452 0.0501,-0.025048 0.0061,-0.024302 -0.0049,-0.050585 0,-0.075149 0.02048,-0.1024006 0.08787,-0.2123413 0.0501,-0.3256438 -0.0037,-0.011203 -0.02136,-0.013849 -0.02506,-0.025051 -0.01056,-0.031685 0.0081,-0.067796 0,-0.100198 -0.01553,-0.062104 -0.04872,-0.1224878 -0.07515,-0.1753468 -0.01315,-0.02628 -0.006,-0.1062056 -0.02506,-0.1252476 -0.01253,-0.012526 -0.03758,-0.012526 -0.0501,-0.025051 -0.01159,-0.01158 0.0076,-0.060025 0,-0.075149 -0.01277,-0.025537 -0.06895,-0.1190877 -0.07515,-0.1252477 -0.0059,-0.00591 -0.01756,0.00373 -0.02506,0 -0.02113,-0.010562 -0.02899,-0.039537 -0.0501,-0.050099 -0.0219,-0.010948 -0.07906,0.00529 -0.100201,0 -0.144115,-0.036031 -0.229541,-0.011761 -0.375742,-0.025051 -0.152136,-0.013831 -0.2999,-0.058372 -0.45089,-0.075149 -0.156713,-0.017412 -0.31923,0.017412 -0.475943,0 -0.251772,-0.027975 -0.497893,-0.075149 -0.751485,-0.075149 -0.215564,0 -0.410951,0.025051 -0.626237,0.025051 -0.314466,0 -0.644742,-0.026139 -0.951884,0.025051 -0.08569,0.014282 -0.188275,0 -0.275545,0 -0.09778,0 -0.257392,-0.031099 -0.350692,0 -0.01122,0.00373 -0.01387,0.021318 -0.02506,0.025048 -0.06354,0.02118 -0.160176,-0.00932 -0.225446,0 -0.330637,0.047229 0.116602,0.00173 -0.125246,0.050099 -0.04015,0.00803 -0.08511,-0.00803 -0.125248,0 -0.02589,0.00518 -0.04911,0.020711 -0.07515,0.025051 -0.04118,0.00686 -0.08475,-0.010126 -0.125246,0 -0.03623,0.00906 -0.06358,0.042779 -0.100198,0.050099 -0.02456,0.00491 -0.0506,-0.00491 -0.07515,0 -0.241848,0.048379 0.205388,0.00286 -0.125249,0.050099 -0.275296,0.039327 0.101492,-0.056686 -0.225446,0.025048 -0.05123,0.012808 -0.09802,0.042629 -0.150296,0.050099 -0.297508,0.042501 -0.600602,0.085964 -0.901782,0.1252477 -0.125296,0.016343 -0.250288,0.035044 -0.375743,0.050099 -0.08332,0.01 -0.168807,0.00583 -0.250497,0.025048 -0.0619,0.014565 -0.115995,0.052321 -0.175345,0.075149 -0.150312,0.057811 -0.301548,0.090559 -0.450892,0.1502974 -0.04954,0.019817 -0.09866,0.06224 -0.150297,0.075149 -0.152617,0.038154 -0.293121,0.1119142 -0.425841,0.2003962 -0.02043,0.013616 -0.227527,0.1195077 -0.250497,0.1252477 -0.06786,0.016966 -0.108957,0.00584 -0.175347,0.050099 -0.02948,0.019651 -0.04681,0.053892 -0.07515,0.075149 -0.05498,0.041236 -0.244855,0.1446595 -0.275545,0.1753465 -0.06931,0.069309 0.0021,0.02402 -0.100198,0.075149 -0.04546,0.022728 -0.08734,0.1123867 -0.100198,0.1252477 -0.03144,0.031432 -0.101408,-0.013131 -0.125248,-0.025051 -0.02672,-0.013359 -0.07348,0.013359 -0.100198,0 -0.01056,-0.00528 -0.0145,-0.019768 -0.02506,-0.025048 -0.01494,-0.00747 -0.0383,0.011808 -0.0501,0 -0.0059,-0.00591 0.0059,-0.019141 0,-0.025051 -0.01181,-0.011808 -0.0383,0.011808 -0.0501,0 -0.0059,-0.00591 0.0059,-0.019141 0,-0.025051 -0.01181,-0.011808 -0.0334,0 -0.0501,0 -0.0588,0 0.01181,-0.0059 -0.0501,0.025051 -0.06208,0.031041 -0.161647,-0.00685 -0.225447,0.025051 -0.02113,0.010562 -0.02899,0.039537 -0.0501,0.050099 -0.03609,0.018046 -0.0904,0.032676 -0.125249,0.050099 -0.02112,0.010562 -0.03044,0.036999 -0.0501,0.050099 -0.155694,0.103796 -0.367732,0.259533 -0.450892,0.4258421 -0.01056,0.021124 -0.03954,0.028975 -0.0501,0.050099 -0.03032,0.060653 0.04107,0.2094309 0.02506,0.2254459 -0.0059,0.00591 -0.01756,-0.00373 -0.02506,0 -0.06772,0.033861 -0.08603,0.00363 -0.150296,0.025051 -0.03571,0.011902 -0.03608,0.036071 -0.0501,0.050099 -0.01181,0.011808 -0.03621,-0.00926 -0.0501,0 -0.01965,0.0131 -0.03121,0.035928 -0.0501,0.050099 -0.0461,0.034576 -0.07915,0.015524 -0.125248,0.050099 -0.0496,0.037199 -0.09742,0.093519 -0.150297,0.1252476 -0.02264,0.013584 -0.05404,0.0092 -0.07515,0.025048 -0.01495,0.011202 -0.01186,0.036896 -0.02506,0.050099 -0.04855,0.048549 -0.118197,0.065906 -0.175347,0.100198 -0.204338,0.1226002 0.03207,-0.017787 -0.125248,0.1001982 -0.107374,0.08053 -0.239993,0.1265963 -0.350692,0.2003963 -0.01965,0.0131 -0.02899,0.039537 -0.0501,0.050099 -0.01494,0.00747 -0.03425,-0.00528 -0.0501,0 -0.02241,0.00747 -0.02899,0.039537 -0.0501,0.050099 -0.0075,0.00373 -0.01916,-0.0059 -0.02506,0 -0.01321,0.013202 -0.01186,0.036896 -0.02506,0.050099 -0.0059,0.0059 -0.01756,-0.00373 -0.02506,0 -0.0554,0.027691 -0.0078,0.015547 -0.02506,0.050099 -0.02505,0.0501 -0.100186,0.075149 -0.125246,0.1252476 -0.0037,0.00747 0.0059,0.019151 0,0.025051 -0.0059,0.0059 -0.01756,-0.00373 -0.02506,0 -0.04368,0.02184 -0.153517,0.1316668 -0.175347,0.1753468 -0.01574,0.031484 -0.03463,0.079936 -0.07515,0.1001979 -0.05176,0.025883 -0.04242,0.058785 -0.07515,0.075149 -0.02362,0.011808 -0.05319,0.010401 -0.07515,0.025048 -0.007,0.00463 0.0037,0.017581 0,0.025051 -0.01436,0.028718 -0.05226,0.034843 -0.07515,0.050099 -0.045,0.03 -0.112259,0.1484352 -0.125249,0.2003962 -0.01842,0.073731 -0.0017,0.5342085 0.02506,0.6011885 0.0088,0.02193 0.03954,0.02898 0.0501,0.0501 0.0054,0.01079 -0.03256,0.0075 -0.0501,0.02505 -0.0059,0.0059 0.0037,0.01755 0,0.02505 -0.03006,0.06012 -0.120236,0.09018 -0.150296,0.150297 -0.0037,0.0075 0.0059,0.01915 0,0.02505 -0.0059,0.0059 -0.01916,-0.0059 -0.02506,0 -0.0095,0.0095 -0.06018,0.410531 -0.0501,0.450891 0.01336,0.05346 0.01093,0.133007 0.02506,0.175347 0.0803,0.240894 0.248721,0.498628 0.400791,0.701387 0.03475,0.04633 0.08796,0.06291 0.125248,0.100198 0.01321,0.0132 0.01186,0.0369 0.02506,0.0501 0.02585,0.02585 0.0728,0.0364 0.1002,0.0501 0.02112,0.01056 0.02899,0.03954 0.0501,0.0501 0.02581,0.0129 0.107706,0.03256 0.125246,0.0501 0.0059,0.0059 -0.0059,0.01915 0,0.02505 0.02129,0.02129 0.04659,0.0406 0.07515,0.0501 0.01584,0.0053 0.03621,-0.0093 0.0501,0 0.01556,0.01036 0.0095,0.03974 0.02506,0.0501 0.02865,0.01905 0.0694,0.0096 0.100197,0.02505 0.0167,0.0084 0.03341,0.01665 0.0501,0.02505 0,0.0084 -0.0059,0.01915 0,0.02505 0.0059,0.0059 0.01696,-0.0018 0.02506,0 0.06722,0.01494 0.133598,0.0334 0.200398,0.0501 0.0334,0.0084 -0.1086,0.0084 -0.1002,-0.02505 0.0084,-0.0334 0.0668,0.01665 0.1002,0.02505 -0.0048,0.02769 -0.115618,0.244705 -0.07515,0.325644 0.03084,0.06168 0.0431,0.136294 0.07515,0.200396 0.0075,0.01494 -0.0075,0.03516 0,0.0501 0.01827,0.03653 0.04007,0.04007 0.0501,0.0501 0.0084,0.0084 0.0167,0.0668 0.02505,0.07515 0.0059,0.0059 0.01915,-0.0059 0.02505,0 0.01991,0.01991 0.04028,0.130666 0.0501,0.150297 0.0148,0.02959 0.05673,0.04751 0.07515,0.07515 0.03436,0.05154 0.131745,0.202562 0.200397,0.225446 0.01584,0.0053 0.03459,-0.0062 0.0501,0 0.103124,0.04125 0.160866,0.119021 0.275545,0.150297 0.174416,0.04757 0.115479,0.0021 0.275544,0.0501 0.182291,0.05469 0.06457,0.05191 0.250496,0.07515 0.121775,0.01522 0.158301,0.01102 0.275544,0.0501 0.02255,0.0075 0.0526,-0.0075 0.07515,0 0.12526,0.04175 0.247527,0.07883 0.375743,0.100198 0.0671,0.01118 0.120239,0.05678 0.175347,0.07515 0.03168,0.01056 0.0678,-0.0081 0.100198,0 0.01811,0.0045 0.03179,0.02139 0.0501,0.02505 0.151744,0.03035 0.590168,0 0.751486,0 0.04799,0 0.13016,-0.01506 0.175346,0 0.06549,0.02183 0.132982,0.05829 0.200397,0.07515 0.06253,0.01563 0.339658,0.01223 0.400792,0 0.06195,-0.01239 0.121471,-0.05719 0.175347,-0.07515 0.03668,-0.01223 0.0877,0.0094 0.125247,0 0.104506,-0.02613 0.235215,-0.05498 0.325644,-0.100198 0.04419,-0.02209 0.292602,-0.0057 0.350694,-0.02505 0.0112,-0.0037 0.01385,-0.02132 0.02505,-0.02505 0.0077,-0.0026 0.09248,-0.02248 0.100198,-0.02505 0.09966,-0.03322 0.395069,0.04044 0.475941,0 0.05682,-0.02841 0.118606,-0.02173 0.175347,-0.0501 0.04008,-0.02004 0.110218,0.02004 0.150297,0 0.04808,-0.02404 0.117194,-0.03556 0.175347,-0.0501 0.0243,-0.0061 0.05138,0.0079 0.07515,0 0.08909,-0.0297 0.183309,-0.0444 0.275544,-0.07515 0.0622,-0.02073 0.108627,-0.0618 0.175347,-0.07515 0.01638,-0.0033 0.03426,0.0053 0.0501,0 0.125848,-0.04195 0.249075,-0.108074 0.375743,-0.150297 0.03266,-0.01089 0.06941,-0.0097 0.100198,-0.02505 0.02112,-0.01056 0.03121,-0.03593 0.0501,-0.0501 0.09109,-0.06832 0.209686,-0.107165 0.300595,-0.175346 0.03541,-0.02656 0.17649,-0.143472 0.200396,-0.175347 0.0112,-0.01494 0.01185,-0.0369 0.02505,-0.0501 0.0132,-0.0132 0.03516,-0.01385 0.0501,-0.02505 0.02996,-0.02247 0.183643,-0.216987 0.200397,-0.250495 0.0075,-0.01494 -0.0041,-0.0339 0,-0.0501 0.02104,-0.08414 0.07916,-0.166352 0.100198,-0.250495 0.06355,-0.254208 0.156127,-0.661923 0.375743,-0.826635 0.123865,-0.0929 0.258752,-0.114472 0.400792,-0.175346 0.07585,-0.03251 0.148923,-0.06959 0.225446,-0.100199 0.06653,-0.02661 0.138224,-0.03784 0.200396,-0.07515 0.227595,-0.136557 0.462769,-0.265666 0.676338,-0.425842 0.0668,-0.0501 0.135194,-0.09814 0.200396,-0.150297 0.05251,-0.04201 0.09279,-0.115794 0.150297,-0.150297 0.02264,-0.01359 0.05318,-0.0104 0.07515,-0.02505 0.05758,-0.03839 0.199684,-0.162288 0.250495,-0.200396 0.293465,-0.220099 0.617726,-0.392281 0.876733,-0.6512879 0.150494,-0.1504934 0.300896,-0.3091453 0.475941,-0.425842 0.05755,-0.038365 -0.01074,-0.014308 0.0501,-0.075149 0.0132,-0.013202 0.03456,-0.014693 0.0501,-0.02505 0.03929,-0.026195 0.122848,-0.1387477 0.150298,-0.1753467 0.05532,-0.073761 0.149237,-0.123658 0.200396,-0.2003962 0.0046,-0.00695 -0.0046,-0.018102 0,-0.025049 0.01965,-0.029476 0.05931,-0.043463 0.07515,-0.075149 0.183409,-0.3668164 0.250496,-0.6767175 0.250496,-1.1021793 0,-0.064143 0.02017,-0.4857063 0,-0.5260401 -0.03153,-0.063069 -0.0097,-0.088857 -0.02505,-0.1502972 -0.0045,-0.018113 -0.02052,-0.031986 -0.02505,-0.050099 -0.02114,-0.08457 0.0032,-0.1657052 -0.02505,-0.2504953 -0.0088,-0.026317 0,-0.072225 0,-0.1001981 0,-0.1474532 0.01096,-0.303715 -0.0501,-0.425842 -0.02632,-0.052632 -0.04961,4.867e-4 -0.07515,-0.02505 -0.0334,-0.033399 0.04175,-0.02505 -0.02505,-0.02505"
           id="path21" /><path
           style="display:inline;fill:#934227;fill-opacity:1;stroke:#000000;stroke-width:0.133891;stroke-opacity:1"
           d="m 160.60251,54.015039 c -0.30739,-0.144755 -0.76308,-0.170864 -1.94142,-0.111236 -1.51649,0.07674 -1.74795,0.04798 -3.34728,-0.415961 -0.40502,-0.11749 -1.27866,-0.326918 -1.94142,-0.465398 -2.12818,-0.444666 -2.53189,-0.555085 -3.17582,-0.868604 -0.34754,-0.169212 -0.77601,-0.480161 -0.95216,-0.690999 -0.5068,-0.606613 -1.20093,-2.15503 -1.11825,-2.49453 0.04,-0.164371 0.13079,-0.524375 0.20168,-0.80001 l 0.12889,-0.501155 -0.63896,-0.18975 c -0.70076,-0.208105 -2.00039,-0.894274 -2.6873,-1.418819 -0.55512,-0.423905 -1.68569,-2.138842 -1.87602,-2.845698 -0.24231,-0.899865 -0.0434,-1.825411 0.51791,-2.409326 0.45831,-0.476801 0.47438,-0.524121 0.32156,-0.946744 -0.17573,-0.485952 -0.21608,-2.081017 -0.0584,-2.308084 0.12533,-0.180472 0.72755,-0.59475 0.86456,-0.59475 0.0573,0 0.1041,0.07545 0.1041,0.167672 0,0.174688 0.88797,1.713745 1.80847,3.134507 0.29404,0.453856 0.65513,1.023317 0.80241,1.265471 0.14728,0.242153 0.3299,0.533578 0.40582,0.647612 0.78475,1.178703 1.1838,1.857473 1.68334,2.863274 0.58027,1.168367 1.49315,2.304333 2.11168,2.627729 0.43481,0.227337 2.02231,0.765122 3.19419,1.08207 0.8548,0.231192 1.41171,0.261624 4.75314,0.259733 3.33876,-0.0019 4.02951,-0.0404 5.8602,-0.32669 2.45298,-0.383611 3.64386,-0.639204 4.28452,-0.919561 0.25774,-0.11279 0.8,-0.304501 1.20502,-0.426026 0.40502,-0.121524 0.94728,-0.346667 1.20502,-0.500317 1.06032,-0.632103 3.21228,-1.837023 4.28452,-2.398985 0.40502,-0.212271 1.02786,-0.610608 1.38409,-0.885193 0.35623,-0.274586 0.84396,-0.649873 1.08384,-0.833974 1.64605,-1.263266 2.60123,-2.054397 4.65374,-3.854447 1.39257,-1.221281 1.83115,-1.586952 2.92017,-2.434685 1.38342,-1.076905 3.50745,-2.848375 3.90557,-3.257302 0.599,-0.615249 1.50906,-1.958949 2.17509,-3.211501 0.34403,-0.64699 0.90646,-1.610648 1.24984,-2.141462 0.58041,-0.897223 0.63087,-0.941626 0.71725,-0.631186 0.0511,0.183662 0.0989,1.149724 0.10627,2.146804 0.0137,1.867622 -0.13898,2.806565 -0.64117,3.941855 -0.27511,0.621935 -3.00418,3.405193 -4.51389,4.60352 -1.0027,0.795889 -3.22174,2.389601 -3.6868,2.647854 -0.15109,0.0839 -0.49495,0.364688 -0.76414,0.623973 -0.831,0.800419 -2.93337,2.05981 -4.42381,2.650003 -0.7817,0.309547 -1.61763,0.679662 -1.85761,0.822475 -0.58701,0.349333 -1.03027,1.147688 -1.58177,2.84896 -0.25327,0.781296 -0.54578,1.582537 -0.65002,1.780537 -0.38775,0.7365 -2.05671,2.082785 -3.0892,2.491937 -2.4131,0.956255 -4.45313,1.434035 -6.35983,1.489491 -1.44106,0.04191 -2.96534,0.31082 -4.57028,0.806272 -0.76648,0.23662 -1.529,0.229446 -2.05734,-0.01936 z"
           id="path23"
           transform="scale(0.26458333)" /><path
           style="fill:#9b3316;fill-opacity:1;stroke:#000000;stroke-width:0.0669456;stroke-opacity:1"
           d="m 156.66078,47.914369 c -0.0287,-0.02869 -0.21543,-0.06389 -0.41503,-0.07822 -0.37689,-0.02707 -0.60031,-0.07718 -1.50098,-0.336686 -0.55847,-0.160906 -0.85958,-0.263556 -1.21514,-0.414243 -0.11602,-0.04917 -0.27016,-0.0894 -0.34254,-0.0894 -0.61637,0 -1.68322,-0.928179 -2.15717,-1.876777 -0.15573,-0.311706 -0.32222,-0.611926 -0.36998,-0.667156 -0.0478,-0.05523 -0.11985,-0.224519 -0.16022,-0.376198 -0.0404,-0.151678 -0.12895,-0.347494 -0.19685,-0.435146 -0.0679,-0.08765 -0.1425,-0.237494 -0.16578,-0.332983 -0.0233,-0.09549 -0.11611,-0.247397 -0.20629,-0.337574 -0.0902,-0.09018 -0.18424,-0.24478 -0.20903,-0.343561 -0.0248,-0.09878 -0.15593,-0.30838 -0.29142,-0.465774 -0.13549,-0.157393 -0.27905,-0.361484 -0.31901,-0.453534 -0.04,-0.09205 -0.20838,-0.333843 -0.37427,-0.537318 -0.16588,-0.203475 -0.39399,-0.55296 -0.5069,-0.776635 -0.11291,-0.223674 -0.27899,-0.494271 -0.36907,-0.601325 -0.0901,-0.107054 -0.21401,-0.31489 -0.27541,-0.461859 -0.0614,-0.146967 -0.1821,-0.342528 -0.26824,-0.434578 -0.0861,-0.09205 -0.23213,-0.317992 -0.32442,-0.502093 -0.0923,-0.1841 -0.25368,-0.442443 -0.35866,-0.574095 -0.10497,-0.131652 -0.26184,-0.402782 -0.3486,-0.60251 -0.0868,-0.199729 -0.21282,-0.487913 -0.28013,-0.640408 -0.27966,-0.633617 -0.27174,-0.662081 0.37483,-1.347884 0.32022,-0.339641 0.61942,-0.617529 0.66489,-0.617529 0.0455,0 0.19869,-0.0922 0.34049,-0.204891 0.14181,-0.112691 0.48857,-0.324936 0.77058,-0.471656 0.28202,-0.14672 0.62955,-0.366608 0.77231,-0.488639 0.14275,-0.122031 0.41017,-0.301752 0.59427,-0.399379 0.1841,-0.09763 0.51548,-0.327516 0.7364,-0.510864 0.22092,-0.183348 0.64945,-0.455779 0.95228,-0.605404 0.30282,-0.149625 0.56575,-0.296564 0.58427,-0.326531 0.0185,-0.02997 0.18344,-0.07436 0.3665,-0.09864 0.51673,-0.06855 0.70723,-0.409113 0.54686,-0.97768 -0.11099,-0.393521 0.97502,-1.448596 2.14429,-2.083212 0.41443,-0.224928 1.00802,-0.297297 1.40507,-0.1713 0.16149,0.05125 0.49348,0.130169 0.73776,0.175385 0.38333,0.07095 0.47214,0.06772 0.64873,-0.02359 0.11253,-0.05819 0.25448,-0.188801 0.31546,-0.290245 0.1183,-0.196818 0.17683,-0.242039 1.18581,-0.916022 0.359,-0.239803 0.65272,-0.464527 0.65272,-0.499386 0,-0.03486 0.15069,-0.0957 0.33487,-0.135196 0.32547,-0.0698 0.9535,-0.368349 1.77392,-0.843265 0.22092,-0.127884 0.59556,-0.297441 0.83252,-0.376793 0.23697,-0.07935 0.52317,-0.196864 0.63599,-0.261139 0.11282,-0.06428 0.59676,-0.244193 1.07542,-0.399817 0.47866,-0.155624 0.97574,-0.336166 1.10461,-0.401204 0.12887,-0.06504 0.46025,-0.139281 0.7364,-0.164984 1.18571,-0.110359 5.35439,-0.711313 5.62674,-0.811147 0.16387,-0.06007 0.56145,-0.135181 0.88351,-0.166918 0.33709,-0.03322 0.76319,-0.127565 1.00418,-0.222341 0.26986,-0.106129 0.63274,-0.181068 1.02113,-0.210876 0.33138,-0.02543 0.7041,-0.0879 0.82826,-0.138831 0.12416,-0.05092 0.42793,-0.09259 0.67504,-0.09259 0.2471,0 0.47221,-0.02259 0.50023,-0.05021 0.028,-0.02762 0.56776,-0.05287 1.19944,-0.05612 0.63167,-0.0032 2.59393,-0.04108 4.36056,-0.08407 3.07345,-0.07479 3.25897,-0.07237 4.29875,0.05612 0.61116,0.07552 1.49161,0.134276 2.01206,0.134276 0.62458,0 1.16399,0.04264 1.65942,0.131164 0.40371,0.07214 1.12766,0.158498 1.60877,0.191906 0.48111,0.03341 0.93639,0.09374 1.01174,0.134064 0.0827,0.04424 0.15232,0.167697 0.17561,0.311227 0.0212,0.130848 0.10068,0.316813 0.17654,0.413256 0.0759,0.09644 0.13793,0.217677 0.13793,0.269409 0,0.05173 0.0602,0.212159 0.13389,0.356505 0.0736,0.144347 0.1339,0.371069 0.1339,0.503826 0,0.132758 0.0335,0.304076 0.0746,0.380706 0.10199,0.190564 -0.0938,0.84574 -0.38798,1.29813 -0.12218,0.187911 -0.22215,0.376401 -0.22215,0.418865 0,0.04246 -0.18303,0.355665 -0.40674,0.696 -0.46522,0.70777 -1.26371,2.112497 -1.39821,2.459795 -0.1008,0.260262 -1.24312,1.895 -1.60867,2.302125 -0.12854,0.143155 -0.32802,0.323908 -0.44328,0.401673 -0.2192,0.14788 -1.43515,1.150597 -1.96227,1.618145 -0.16849,0.149454 -0.47957,0.384537 -0.69129,0.522408 -0.21171,0.13787 -0.38494,0.278784 -0.38494,0.313141 0,0.03436 -0.10309,0.105545 -0.2291,0.158194 -0.12601,0.05265 -0.28186,0.17625 -0.34635,0.274668 -0.0645,0.09842 -0.28161,0.271702 -0.48249,0.385075 -0.20089,0.113374 -0.44346,0.315975 -0.53904,0.450225 -0.0956,0.134251 -0.37034,0.377708 -0.61057,0.541018 -0.24024,0.16331 -0.5573,0.418653 -0.70458,0.567431 -0.14728,0.148776 -0.40984,0.371548 -0.58347,0.495047 -0.17362,0.123498 -0.44136,0.373589 -0.59496,0.555756 -0.15361,0.182168 -0.62913,0.61013 -1.05671,0.951028 -0.42757,0.340897 -0.8356,0.685442 -0.90671,0.765655 -0.0711,0.08021 -0.38084,0.314938 -0.68826,0.521613 -0.30743,0.206674 -0.62982,0.459983 -0.71643,0.562909 -0.0866,0.102926 -0.25889,0.230211 -0.38287,0.282855 -0.12397,0.05265 -0.42122,0.275113 -0.66055,0.494375 -0.68427,0.626894 -1.27553,0.99869 -3.11297,1.957516 -0.25774,0.134496 -0.63431,0.352217 -0.83682,0.483826 -0.20251,0.131607 -0.59414,0.352573 -0.87029,0.491035 -0.27615,0.138461 -0.65531,0.353027 -0.84257,0.476813 -0.47756,0.315684 -1.11256,0.592452 -1.80873,0.788352 -0.32756,0.09217 -0.80191,0.261224 -1.05412,0.375666 -0.29903,0.135686 -0.64208,0.229007 -0.98608,0.268241 -0.29014,0.03309 -0.58086,0.08841 -0.64605,0.122923 -0.16468,0.0872 -1.03871,0.254384 -1.993,0.381219 -0.44184,0.05873 -1.16589,0.165005 -1.60901,0.236174 -0.70351,0.112993 -1.21962,0.131521 -4.07032,0.146123 -1.79557,0.0092 -3.28812,-0.0068 -3.31679,-0.03544 z"
           id="path24"
           transform="scale(0.26458333)" /><path
           style="fill:#9b3316;fill-opacity:1;stroke:#000000;stroke-width:0.264583;stroke-opacity:1"
           d="M 39.570154,8.6083681 45.2205,12.434309"
           id="path25" /><path
           style="fill:#9b3316;fill-opacity:1;stroke:#000000;stroke-width:0.264583;stroke-opacity:1"
           d="m 41.146581,7.3684796 5.969178,3.9322174"
           id="path26" /><path
           style="fill:#9b3316;fill-opacity:1;stroke:#000000;stroke-width:0.264583;stroke-opacity:1"
           d="m 43.130405,6.4474198 5.827474,3.5602512"
           id="path27" /><path
           style="fill:#9b3316;fill-opacity:1;stroke:#000000;stroke-width:0.264583;stroke-opacity:1"
           d="m 46.106135,5.8983263 4.180197,2.8517434"
           id="path28" /><path
           style="fill:#9b3316;fill-opacity:1;stroke:#000000;stroke-width:0.264583;stroke-opacity:1"
           d="m 48.355649,5.7566247 2.727754,1.5941424"
           id="path29" /><path
           style="fill:#9b3316;fill-opacity:1;stroke:#000000;stroke-width:0.264583;stroke-opacity:1"
           d="m 38.75537,10.060809 3.648813,2.710041"
           id="path30" /></g></g><path
       style="fill:none;fill-opacity:1;stroke:#000000;stroke-width:0.264583;stroke-opacity:1"
       d="m 22.813947,8.8563457 c 0,0 1.899818,-2.3551996 4.879242,-3.0216052 2.979424,-0.6664056 6.45688,0.6835299 6.45688,0.6835299"
       id="path31"
       sodipodi:nodetypes="czc" /><rect
       style="fill:none;fill-opacity:1;stroke:#000000;stroke-width:0.264583;stroke-opacity:1"
       id="rect31"
       width="21.396931"
       height="20.334169"
       x="41.872803"
       y="28.198605" /><path
       style="fill:none;fill-opacity:1;stroke:#000000;stroke-width:0.264583;stroke-opacity:1"
       d="M 38.330264,28.056903 51.791909,20.121618 65.53696,28.056904 Z"
       id="path32" /><text
       xml:space="preserve"
       style="font-size:3.175px;writing-mode:lr-tb;direction:ltr;fill:none;fill-opacity:1;stroke:#000000;stroke-width:0.264583;stroke-opacity:1"
       x="44.423431"
       y="31.953695"
       id="text32"><tspan
         sodipodi:role="line"
         id="tspan32"
         style="stroke-width:0.264583"
         x="44.423431"
         y="31.953695">Food Store</tspan></text></g></svg>
