<?xml version="1.0" encoding="UTF-8" standalone="no"?>
<!-- Created with Inkscape (http://www.inkscape.org/) -->

<svg
   width="256"
   height="256"
   viewBox="0 0 67.733332 67.733333"
   version="1.1"
   id="svg1"
   inkscape:version="1.4.3 (0d15f75042, 2025-12-25)"
   sodipodi:docname="critic.svg"
   xmlns:inkscape="http://www.inkscape.org/namespaces/inkscape"
   xmlns:sodipodi="http://sodipodi.sourceforge.net/DTD/sodipodi-0.dtd"
   xmlns="http://www.w3.org/2000/svg"
   xmlns:svg="http://www.w3.org/2000/svg">
  <sodipodi:namedview
     id="namedview1"
     pagecolor="#ffffff"
     bordercolor="#000000"
     borderopacity="0.25"
     inkscape:showpageshadow="2"
     inkscape:pageopacity="0.0"
     inkscape:pagecheckerboard="0"
     inkscape:deskcolor="#d1d1d1"
     inkscape:document-units="mm"
     inkscape:zoom="3.453125"
     inkscape:cx="128.1448"
     inkscape:cy="128"
     inkscape:window-width="1920"
     inkscape:window-height="1128"
     inkscape:window-x="0"
     inkscape:window-y="0"
     inkscape:window-maximized="1"
     inkscape:current-layer="layer1" />
  <defs
     id="defs1" />
  <g
     inkscape:label="Layer 1"
     inkscape:groupmode="layer"
     id="layer1">
    <path
       style="fill:none;stroke:#000000;stroke-width:0.223"
       d="M 11.646455,41.988536 20.687782,34.249772 21.07089,9.7309201 11.799698,15.784012 Z"
       id="path1" />
    <path
       style="fill:none;stroke:#000000;stroke-width:0.255388"
       d="M 10.055392,45.080069 21.942269,35.144662 22.381018,7.0648013 10.230891,15.069717 Z"
       id="path1-3"
       sodipodi:nodetypes="ccccc" />
    <circle
       style="fill:none;stroke:#000000;stroke-width:0.223"
       id="path2"
       cx="45.742985"
       cy="26.511011"
       r="5.5167422" />
    <path
       style="fill:none;stroke:#000000;stroke-width:0.223"
       d="M 45.742986,31.951131 V 50.646755 L 41.68205,64.28537"
       id="path3" />
    <path
       style="fill:none;stroke:#000000;stroke-width:0.223"
       d="m 45.666366,50.87662 4.98039,12.719155"
       id="path4"
       sodipodi:nodetypes="cc" />
    <path
       style="fill:none;stroke:#000000;stroke-width:0.223"
       d="m 43.444344,30.648567 -5.133636,5.133635 7.355658,-3.754451 1.68567,6.436201"
       id="path5"
       sodipodi:nodetypes="cccc" />
    <path
       style="fill:none;stroke:#000000;stroke-width:0.223"
       d="M 47.428656,38.310708 36.854902,35.245852"
       id="path6"
       sodipodi:nodetypes="cc" />
    <path
       style="fill:none;stroke:#000000;stroke-width:0.223"
       d="m 16.550226,34.786122 c -0.452339,-1.625219 -0.253476,-3.330371 -0.459728,-4.980392 -0.06287,-0.502949 0.06287,-1.029475 0,-1.532427 -0.01306,-0.104494 -0.05931,-0.202612 -0.07662,-0.306485 -0.09825,-0.589505 0,-1.383327 0,-1.992158 0,-0.372027 -0.05231,-0.783144 0,-1.149321 0.03226,-0.225792 0.07662,-0.389807 0.07662,-0.612971"
       id="path7" />
    <path
       style="fill:none;stroke:#000000;stroke-width:0.223"
       d="m 14.941176,22.526696 c 0.102162,0.127703 0.178784,0.48527 0.306486,0.383108 0.127702,-0.102162 -0.397201,-0.51918 -0.306486,-0.383108 0.06081,0.09121 0.693673,0.855076 0.766214,1.0727 0.10364,0.310918 0.387362,0.766215 0.689593,0.766215 0.05108,0 0.117123,0.03612 0.153243,0 0.01806,-0.01806 -0.01806,-0.05856 0,-0.07662 0.01806,-0.01806 0.05856,0.01806 0.07662,0 0.01806,-0.01806 -0.01142,-0.05378 0,-0.07662 0.204839,-0.409678 -0.0516,0.256434 0.153243,-0.153243 0.02284,-0.04569 -0.03612,-0.117123 0,-0.153243 0.01806,-0.01806 0.05856,0.01806 0.07662,0 0.03831,-0.03831 -0.03831,-0.191554 0,-0.229864 0.01806,-0.01806 0.05856,0.01806 0.07662,0 0.03553,-0.03553 0.07662,-1.724836 0.07662,-1.915536 0,-0.268466 -0.260651,0.199079 -0.306486,0.153243 -0.03612,-0.03612 0.03612,-0.117123 0,-0.153243 -0.05377,-0.05376 -0.196031,-0.07364 -0.07662,-0.153243 0.237225,-0.158149 0.590993,-0.145916 0.842836,-0.229864 0.03427,-0.01142 0.05108,-0.05108 0.07662,-0.07662 0.05108,-0.02554 0.09784,-0.06277 0.153243,-0.07662 0.255451,-0.06386 0.384673,-0.115716 0.612972,-0.229865 0.04569,-0.02284 0.107554,0.02284 0.153242,0 0.06461,-0.03231 0.08863,-0.120936 0.153243,-0.153243 0.02284,-0.01142 0.05856,0.01806 0.07662,0 0.04322,-0.04322 -0.02041,-0.245251 0,-0.306485 0.157666,-0.472998 0.03802,-0.766786 -0.153243,-1.149322 -0.15944,-0.318879 0.0053,0.08191 -0.153243,-0.07662 -0.06919,-0.06919 -0.107596,-0.291814 -0.153243,-0.383107 -0.08185,-0.163698 -0.234727,-0.08149 -0.306485,-0.153243 -0.01806,-0.01806 0.01806,-0.05856 0,-0.07662 -0.04742,-0.04742 -0.748842,0.05925 -0.766215,0.07662 -0.04579,0.04579 0.08282,0.153243 -0.07662,0.153243 -0.08077,0 0.0405,-0.157625 0.07662,-0.229864 0.06198,-0.123965 0.03594,-0.658383 0,-0.766214 -0.06312,-0.189371 -0.283373,-0.370128 -0.383107,-0.53635 -0.04155,-0.06926 -0.02816,-0.165252 -0.07662,-0.229865 -0.03427,-0.04569 -0.107555,-0.04236 -0.153243,-0.07662 -0.139794,-0.104846 -0.237768,-0.286215 -0.383107,-0.383107 -0.149357,-0.09957 -0.365834,-0.0964 -0.53635,-0.153243 -0.03427,-0.01142 -0.04236,-0.0652 -0.07662,-0.07662 -0.117101,-0.03903 -0.3354,0 -0.459729,0 -0.385398,0 -0.636155,0.146172 -0.766214,0.53635 -0.01615,0.04846 0.02284,0.107554 0,0.153242 -0.06706,0.134112 -0.134448,0.36287 -0.07662,0.53635 0.01243,0.03728 0.182866,0.353485 0.153243,0.383107 -0.03318,0.03318 -0.257034,0.120276 -0.306485,0.153243 -0.10295,-0.05649 -0.07077,0.147396 -0.07662,0.153243 -0.01806,0.01806 -0.05378,-0.01142 -0.07662,0 -0.07405,0.03702 -0.269461,0.232436 -0.306486,0.306486 -0.05813,0.116268 -0.07056,0.259081 -0.153243,0.383107 -0.06651,0.09976 -0.177028,0.200814 -0.229864,0.306485 -0.02284,0.04569 0.03612,0.117124 0,0.153243 -0.01806,0.01806 -0.05856,-0.01806 -0.07662,0 -0.04453,0.04453 -0.04443,0.242094 -0.07662,0.306486 -0.01615,0.03231 -0.0652,0.04235 -0.07662,0.07662 -0.04444,0.133333 -0.06601,0.710813 0,0.842836 0.04903,0.09807 0.369287,0.306486 0.459728,0.306486 0.12821,0 0.20059,0.100294 0.306486,0.153243 0.04569,0.02284 0.117123,-0.03612 0.153243,0 0.01806,0.01806 -0.01806,0.05856 0,0.07662 0.03612,0.03612 0.189362,-0.03612 0.153243,0 -0.04038,0.04038 -0.107555,0.04235 -0.153243,0.07662 -0.07915,0.05936 -0.564766,0.593183 -0.612972,0.689593 -0.08974,0.179489 -0.129362,1.244841 -0.07662,1.455807 0.03181,0.127232 0.118568,0.202462 0.153243,0.306486 0.01615,0.04846 -0.02284,0.107554 0,0.153242 0.01142,0.02285 0.05856,-0.01806 0.07662,0 0.01806,0.01806 -0.01806,0.05856 0,0.07662 0.01806,0.01806 0.05856,-0.01806 0.07662,0 0.03067,0.03067 0.0415,0.09737 0.153243,0.153243 0.201965,0.100982 0.942172,-0.198673 0.996078,-0.306486 0.02367,-0.04734 0.04822,-0.278084 0.07662,-0.306486 0.01806,-0.01806 0.05856,0.01806 0.07662,0 0.03612,-0.03612 -0.02284,-0.107554 0,-0.153242 0.204597,-0.409195 0.168399,-0.27701 0.07662,-0.919458 z"
       id="path8" />
    <path
       style="fill:none;stroke:#000000;stroke-width:0.223"
       d="m 14.404826,18.695626 c 0.05108,-0.102162 0.255405,-0.255405 0.153243,-0.306486 -0.102162,-0.05108 -0.261602,0.342605 -0.153243,0.306486 0.242299,-0.08077 0.400462,-0.318056 0.612972,-0.459729 0.06435,-0.0429 0.544909,-0.02269 0.612971,0 0.03427,0.01142 0.04431,0.06047 0.07662,0.07662 0.210405,0.105202 0.549733,-0.03162 0.766215,0.07662 0.300345,0.150173 0.53635,1.142514 0.53635,1.455807 0,0.0558 0.04639,0.413337 0,0.459728 -0.01806,0.01806 -0.05856,-0.01806 -0.07662,0 -0.03831,0.03831 0.03831,0.191554 0,0.229865 -0.01806,0.01806 -0.05856,-0.01806 -0.07662,0 -0.0063,0.0063 -0.300225,0.453467 -0.306486,0.459728 -0.01806,0.01806 -0.05856,-0.01806 -0.07662,0 -0.02542,0.02542 -0.130622,0.261244 -0.153243,0.306486 -0.0155,0.031 -0.446103,0.529537 -0.459729,0.53635 -0.02284,0.01142 -0.05856,-0.01806 -0.07662,0 -0.01806,0.01806 0.01806,0.05856 0,0.07662 -0.09332,0.09332 -0.171189,0.03589 -0.229864,0.153243 -0.01142,0.02284 0.01806,0.05856 0,0.07662 -0.04627,0.04627 -0.387067,0 -0.459729,0 -0.108233,0 -0.232916,-0.272753 -0.306485,-0.383108 -0.08244,-0.123651 -0.241354,-0.252842 -0.306486,-0.383107 -0.02322,-0.04644 -0.04451,-0.197756 -0.07662,-0.229864 -0.01806,-0.01806 -0.05856,0.01806 -0.07662,0 -0.01806,-0.01806 0.01142,-0.05378 0,-0.07662 -0.15944,-0.31888 0.0053,0.08191 -0.153243,-0.07662 -0.03612,-0.03612 0.02284,-0.107554 0,-0.153243 -0.09557,-0.19113 -0.278723,-0.668497 -0.153243,-0.919457 0.230593,-0.461184 0.298236,-0.631845 0.383107,-1.225942 z"
       id="path9" />
  </g>
</svg>
